Race 2 2013 Hindi Movies Best Quality New Source DVDScr ESubs Sample Included ~ rDX

Screen Shots :
 
http://myimghosting.serveftp.com/Race2BQ.html
 
http://myimghost.cwahi.net/Race2BQ.html


Format                                   : Matroska
Format version                           : Version 1
File size                                : 687 MiB
Duration                                 : 2h 21mn
Overall bit rate                         : 679 Kbps
Movie name                               : Race 2 2013 DVDScr Hindi [EngSub]
Encoded date                             : UTC 2013-01-30 05:41:42
Writing library                          : libebml v0.7.7 + libmatroska v0.8.1

Video
ID                                       : 1
Format                                   : MPEG-4 Visual
Format profile                           : Advanced Simple@L5
Format settings, BVOP                    : Yes
Format settings, QPel                    : No
Format settings, GMC                     : No warppoints
Format settings, Matrix                  : Default (MPEG)
Codec ID                                 : V_MS/VFW/FOURCC / XVID
Codec ID/Hint                            : XviD
Duration                                 : 2h 21mn
Bit rate                                 : 586 Kbps
Width                                    : 640 pixels
Height                                   : 272 pixels
Display aspect ratio                     : 2.35:1
Frame rate mode                          : Constant
Frame rate                               : 23.976 fps
Color space                              : YUV
Chroma subsampling                       : 4:2:0
Bit depth                                : 8 bits
Scan type                                : Progressive
Compression mode                         : Lossy
Bits/(Pixel*Frame)                       : 0.140
Stream size                              : 593 MiB (86%)
Title                                    : Race 2 2013 DVDScr Hindi [EngSub]
Writing library                          : XviD 1.2.1 (UTC 2008-12-04)
Language                                 : Hindi
Default                                  : Yes
Forced                                   : No

Audio
ID                                       : 2
Format                                   : MPEG Audio
Format version                           : Version 1
Format profile                           : Layer 3
Mode                                     : Joint stereo
Mode extension                           : MS Stereo
Codec ID                                 : A_MPEG/L3
Codec ID/Hint                            : MP3
Duration                                 : 1h 11mn
Bit rate mode                            : Constant
Bit rate                                 : 80.0 Kbps
Channel(s)                               : 2 channels
Sampling rate                            : 32.0 KHz
Compression mode                         : Lossy
Stream size                              : 40.7 MiB (6%)
Title                                    : Race 2 2013 DVDScr Hindi [EngSub]
Writing library                          : LAME3.99r
Encoding settings                        : -m j -V 4 -q 2 -lowpass 13.5 -b 80
Language                                 : Hindi
Default                                  : Yes
Forced                                   : No

Text
ID                                       : 3
Format                                   : UTF-8
Codec ID                                 : S_TEXT/UTF8
Codec ID/Info                            : UTF-8 Plain Text
Title                                    : Race 2 2013 DVDScr Hindi [EngSub]
Language                                 : English
Default                                  : Yes
Forced                                   : No